<svg width="231" height="26" viewBox="0 0 231 26" fill="none" xmlns="http://www.w3.org/2000/svg">
<path d="M37.198 7.032L32.998 11.036L37.366 17H35.686L32.074 11.932L30.422 13.5V17H29.106L29.106 7.032H30.422V11.974L35.476 7.032L37.198 7.032ZM39.7599 17L38.2339 17V9.776H39.4239V15.67H39.4519L42.6999 9.776H44.2259V17H43.0359V11.106H43.0079L39.7599 17ZM52.1872 14.718C51.8232 16.398 50.7732 17.238 49.0372 17.238C47.9732 17.238 47.1379 16.9067 46.5312 16.244C45.9339 15.5813 45.6352 14.662 45.6352 13.486C45.6352 12.3193 45.9432 11.3767 46.5592 10.658C47.1845 9.93 47.9965 9.566 48.9952 9.566C50.1059 9.566 50.9272 9.944 51.4592 10.7C52.0005 11.4467 52.2712 12.394 52.2712 13.542V13.71H46.8392L46.8252 13.794C46.8252 14.5593 47.0259 15.1613 47.4272 15.6C47.8285 16.0387 48.3792 16.258 49.0792 16.258C49.6019 16.258 50.0125 16.1367 50.3112 15.894C50.6192 15.6513 50.8572 15.2593 51.0252 14.718H52.1872ZM51.0392 12.744C50.9832 12.0533 50.7732 11.5167 50.4092 11.134C50.0452 10.742 49.5645 10.546 48.9672 10.546C48.3885 10.546 47.9079 10.742 47.5252 11.134C47.1425 11.526 46.9139 12.0627 46.8392 12.744H51.0392ZM53.5047 17V9.776L56.8507 9.776C57.3267 9.776 57.7327 9.818 58.0687 9.902C58.4047 9.97667 58.6987 10.1493 58.9507 10.42C59.2027 10.6907 59.3287 11.0593 59.3287 11.526C59.3287 12.2353 58.9741 12.7533 58.2647 13.08V13.094C58.6941 13.178 59.0301 13.3787 59.2727 13.696C59.5154 14.004 59.6367 14.396 59.6367 14.872C59.6367 15.488 59.4314 15.9967 59.0207 16.398C58.6101 16.7993 58.0827 17 57.4387 17H53.5047ZM56.7247 12.688C57.2194 12.688 57.5694 12.6087 57.7747 12.45C57.9894 12.282 58.0967 12.0393 58.0967 11.722C58.0967 11.4047 57.9941 11.1713 57.7887 11.022C57.5834 10.8727 57.2287 10.798 56.7247 10.798L54.6667 10.798V12.688L56.7247 12.688ZM54.6667 13.696V15.978L57.2147 15.978C57.5881 15.978 57.8774 15.866 58.0827 15.642C58.2974 15.418 58.4047 15.1287 58.4047 14.774C58.4047 14.0553 57.9381 13.696 57.0047 13.696L54.6667 13.696ZM62.8723 15.446V16.398C62.8723 16.7527 62.8536 17.0513 62.8163 17.294C62.7883 17.546 62.7229 17.798 62.6203 18.05C62.5176 18.302 62.3589 18.512 62.1443 18.68C61.9296 18.8573 61.6543 18.988 61.3183 19.072V18.372C61.8223 18.204 62.0789 17.7467 62.0883 17H61.3183V15.446H62.8723ZM70.0352 17H68.8452V9.776H74.8372V17H73.6472V10.826H70.0352V17ZM82.7985 14.718C82.4345 16.398 81.3845 17.238 79.6485 17.238C78.5845 17.238 77.7492 16.9067 77.1425 16.244C76.5452 15.5813 76.2465 14.662 76.2465 13.486C76.2465 12.3193 76.5545 11.3767 77.1705 10.658C77.7958 9.93 78.6078 9.566 79.6065 9.566C80.7172 9.566 81.5385 9.944 82.0705 10.7C82.6118 11.4467 82.8825 12.394 82.8825 13.542V13.71L77.4505 13.71L77.4365 13.794C77.4365 14.5593 77.6372 15.1613 78.0385 15.6C78.4398 16.0387 78.9905 16.258 79.6905 16.258C80.2132 16.258 80.6238 16.1367 80.9225 15.894C81.2305 15.6513 81.4685 15.2593 81.6365 14.718H82.7985ZM81.6505 12.744C81.5945 12.0533 81.3845 11.5167 81.0205 11.134C80.6565 10.742 80.1758 10.546 79.5785 10.546C78.9998 10.546 78.5192 10.742 78.1365 11.134C77.7538 11.526 77.5252 12.0627 77.4505 12.744L81.6505 12.744ZM85.264 9.776V10.798C85.7867 9.96733 86.5987 9.552 87.7 9.552C88.708 9.552 89.506 9.89267 90.094 10.574C90.6914 11.2553 90.99 12.1793 90.99 13.346C90.99 14.5127 90.696 15.446 90.108 16.146C89.5294 16.8367 88.7454 17.182 87.756 17.182C86.72 17.182 85.9127 16.7853 85.334 15.992V19.786H84.144V9.776H85.264ZM87.518 10.546C86.8274 10.546 86.2814 10.798 85.88 11.302C85.488 11.7967 85.292 12.4827 85.292 13.36C85.292 14.2373 85.4927 14.928 85.894 15.432C86.3047 15.9267 86.86 16.174 87.56 16.174C88.2414 16.174 88.778 15.922 89.17 15.418C89.562 14.914 89.758 14.228 89.758 13.36C89.758 12.4827 89.5574 11.7967 89.156 11.302C88.764 10.798 88.218 10.546 87.518 10.546ZM98.6169 14.718C98.2529 16.398 97.2029 17.238 95.4669 17.238C94.4029 17.238 93.5675 16.9067 92.9609 16.244C92.3635 15.5813 92.0649 14.662 92.0649 13.486C92.0649 12.3193 92.3729 11.3767 92.9889 10.658C93.6142 9.93 94.4262 9.566 95.4249 9.566C96.5355 9.566 97.3569 9.944 97.8889 10.7C98.4302 11.4467 98.7009 12.394 98.7009 13.542V13.71H93.2689L93.2549 13.794C93.2549 14.5593 93.4555 15.1613 93.8569 15.6C94.2582 16.0387 94.8089 16.258 95.5089 16.258C96.0315 16.258 96.4422 16.1367 96.7409 15.894C97.0489 15.6513 97.2869 15.2593 97.4549 14.718H98.6169ZM97.4689 12.744C97.4129 12.0533 97.2029 11.5167 96.8389 11.134C96.4749 10.742 95.9942 10.546 95.3969 10.546C94.8182 10.546 94.3375 10.742 93.9549 11.134C93.5722 11.526 93.3435 12.0627 93.2689 12.744H97.4689ZM105.776 9.776L102.682 17.924C102.561 18.2507 102.454 18.5027 102.36 18.68C102.276 18.8667 102.15 19.0673 101.982 19.282C101.824 19.506 101.628 19.6647 101.394 19.758C101.17 19.8607 100.904 19.912 100.596 19.912C100.363 19.912 100.069 19.87 99.7143 19.786V18.722C100.06 18.8247 100.316 18.876 100.484 18.876C100.876 18.876 101.156 18.6753 101.324 18.274L101.884 16.958L99.0143 9.776L100.358 9.776L102.5 15.53L104.53 9.776H105.776ZM112.23 9.776V17H111.04V10.826L108.464 10.826L108.366 14.018C108.338 15.1193 108.138 15.9173 107.764 16.412C107.391 16.9067 106.924 17.154 106.364 17.154C106.019 17.154 105.734 17.1027 105.51 17V16.034C105.632 16.0993 105.842 16.132 106.14 16.132C106.42 16.132 106.658 15.9827 106.854 15.684C107.06 15.376 107.172 14.8627 107.19 14.144L107.316 9.776L112.23 9.776ZM114.564 10.602C115.198 9.91133 116.062 9.566 117.154 9.566C118.246 9.566 119.095 9.89733 119.702 10.56C120.308 11.2227 120.612 12.1513 120.612 13.346C120.612 14.5687 120.308 15.5207 119.702 16.202C119.095 16.8833 118.241 17.224 117.14 17.224C116.038 17.224 115.175 16.888 114.55 16.216C113.924 15.544 113.612 14.6107 113.612 13.416C113.612 12.2307 113.929 11.2927 114.564 10.602ZM118.778 11.33C118.376 10.8167 117.826 10.56 117.126 10.56C116.426 10.56 115.87 10.8167 115.46 11.33C115.049 11.8433 114.844 12.5293 114.844 13.388C114.844 14.2747 115.044 14.97 115.446 15.474C115.856 15.9687 116.426 16.216 117.154 16.216C117.854 16.216 118.4 15.964 118.792 15.46C119.193 14.956 119.394 14.2607 119.394 13.374C119.394 12.5153 119.188 11.834 118.778 11.33ZM128.497 17L126.985 17L124.353 13.444L123.219 14.55V17H122.029V9.776H123.219V13.22L126.523 9.776H128.119L125.207 12.618L128.497 17ZM133.451 7.032L137.553 7.032C138.57 7.032 139.378 7.26533 139.975 7.732C140.572 8.18933 140.871 8.91267 140.871 9.902C140.871 11.9087 139.737 12.912 137.469 12.912H134.767V17H133.451V7.032ZM134.767 8.166V11.806H137.301C138.01 11.806 138.561 11.6753 138.953 11.414C139.354 11.1433 139.555 10.6673 139.555 9.986C139.555 9.60333 139.49 9.286 139.359 9.034C139.238 8.782 139.056 8.59533 138.813 8.474C138.57 8.35267 138.318 8.27333 138.057 8.236C137.796 8.18933 137.483 8.166 137.119 8.166H134.767ZM148.661 16.048V16.972C148.419 17.0653 148.148 17.112 147.849 17.112C147.168 17.112 146.818 16.7573 146.799 16.048C146.118 16.8133 145.245 17.196 144.181 17.196C143.472 17.196 142.907 17.014 142.487 16.65C142.077 16.286 141.871 15.7867 141.871 15.152C141.871 13.864 142.725 13.1127 144.433 12.898C145.441 12.7767 146.025 12.688 146.183 12.632C146.519 12.52 146.701 12.2867 146.729 11.932C146.739 11.876 146.743 11.8153 146.743 11.75C146.743 10.9567 146.197 10.56 145.105 10.56C144.545 10.56 144.121 10.6767 143.831 10.91C143.542 11.134 143.369 11.5073 143.313 12.03H142.151C142.17 11.2553 142.445 10.6533 142.977 10.224C143.509 9.79467 144.242 9.58 145.175 9.58C146.193 9.58 146.949 9.81333 147.443 10.28C147.602 10.4293 147.719 10.6253 147.793 10.868C147.868 11.1107 147.91 11.3113 147.919 11.47C147.929 11.6193 147.933 11.848 147.933 12.156C147.933 12.52 147.924 13.0613 147.905 13.78C147.887 14.4893 147.877 15.0213 147.877 15.376C147.877 15.6373 147.91 15.824 147.975 15.936C148.05 16.0387 148.181 16.09 148.367 16.09C148.442 16.09 148.54 16.076 148.661 16.048ZM146.743 13.248C146.659 13.3133 146.571 13.3693 146.477 13.416C146.384 13.4627 146.263 13.5 146.113 13.528C145.973 13.556 145.875 13.5793 145.819 13.598C145.773 13.6073 145.651 13.626 145.455 13.654C145.259 13.6727 145.157 13.682 145.147 13.682C144.858 13.7193 144.667 13.7473 144.573 13.766C144.489 13.7753 144.321 13.8127 144.069 13.878C143.827 13.9433 143.654 14.018 143.551 14.102C143.449 14.186 143.346 14.312 143.243 14.48C143.15 14.6387 143.103 14.83 143.103 15.054C143.103 15.4273 143.229 15.7213 143.481 15.936C143.743 16.1507 144.097 16.258 144.545 16.258C145.115 16.258 145.623 16.09 146.071 15.754C146.519 15.418 146.743 15.0213 146.743 14.564V13.248ZM156.783 19.296H155.649V17H150.133V19.296L148.999 19.296V15.95H149.783C150.007 15.5207 150.212 14.858 150.399 13.962C150.595 13.0567 150.693 12.1747 150.693 11.316V9.776L155.845 9.776V15.95H156.783V19.296ZM154.655 15.95V10.826H151.855V11.428C151.855 12.2773 151.766 13.1407 151.589 14.018C151.421 14.886 151.229 15.53 151.015 15.95H154.655ZM159.348 17H157.822V9.776H159.012V15.67H159.04L162.288 9.776H163.814V17H162.624V11.106H162.596L159.348 17ZM171.817 14.368C171.714 15.236 171.383 15.9267 170.823 16.44C170.272 16.9533 169.554 17.21 168.667 17.21C167.575 17.21 166.73 16.874 166.133 16.202C165.536 15.5207 165.237 14.6153 165.237 13.486C165.237 12.282 165.55 11.33 166.175 10.63C166.8 9.92067 167.645 9.566 168.709 9.566C169.596 9.566 170.305 9.79 170.837 10.238C171.369 10.6767 171.682 11.3067 171.775 12.128H170.543C170.328 11.0827 169.722 10.56 168.723 10.56C168.032 10.56 167.486 10.8167 167.085 11.33C166.684 11.834 166.483 12.52 166.483 13.388C166.483 14.2653 166.674 14.956 167.057 15.46C167.44 15.964 167.967 16.216 168.639 16.216C169.18 16.216 169.619 16.0573 169.955 15.74C170.3 15.4227 170.52 14.9653 170.613 14.368H171.817ZM178.651 10.826L176.061 10.826V17H174.871V10.826H172.281V9.776L178.651 9.776V10.826ZM179.929 10.602C180.564 9.91133 181.427 9.566 182.519 9.566C183.611 9.566 184.46 9.89733 185.067 10.56C185.674 11.2227 185.977 12.1513 185.977 13.346C185.977 14.5687 185.674 15.5207 185.067 16.202C184.46 16.8833 183.606 17.224 182.505 17.224C181.404 17.224 180.54 16.888 179.915 16.216C179.29 15.544 178.977 14.6107 178.977 13.416C178.977 12.2307 179.294 11.2927 179.929 10.602ZM184.143 11.33C183.742 10.8167 183.191 10.56 182.491 10.56C181.791 10.56 181.236 10.8167 180.825 11.33C180.414 11.8433 180.209 12.5293 180.209 13.388C180.209 14.2747 180.41 14.97 180.811 15.474C181.222 15.9687 181.791 16.216 182.519 16.216C183.219 16.216 183.765 15.964 184.157 15.46C184.558 14.956 184.759 14.2607 184.759 13.374C184.759 12.5153 184.554 11.834 184.143 11.33ZM187.366 17V9.776L190.712 9.776C191.188 9.776 191.594 9.818 191.93 9.902C192.266 9.97667 192.56 10.1493 192.812 10.42C193.064 10.6907 193.19 11.0593 193.19 11.526C193.19 12.2353 192.835 12.7533 192.126 13.08V13.094C192.555 13.178 192.891 13.3787 193.134 13.696C193.377 14.004 193.498 14.396 193.498 14.872C193.498 15.488 193.293 15.9967 192.882 16.398C192.471 16.7993 191.944 17 191.3 17H187.366ZM190.586 12.688C191.081 12.688 191.431 12.6087 191.636 12.45C191.851 12.282 191.958 12.0393 191.958 11.722C191.958 11.4047 191.855 11.1713 191.65 11.022C191.445 10.8727 191.09 10.798 190.586 10.798H188.528V12.688H190.586ZM188.528 13.696V15.978H191.076C191.449 15.978 191.739 15.866 191.944 15.642C192.159 15.418 192.266 15.1287 192.266 14.774C192.266 14.0553 191.799 13.696 190.866 13.696H188.528ZM196.734 15.446V16.398C196.734 16.7527 196.715 17.0513 196.678 17.294C196.65 17.546 196.584 17.798 196.482 18.05C196.379 18.302 196.22 18.512 196.006 18.68C195.791 18.8573 195.516 18.988 195.18 19.072V18.372C195.684 18.204 195.94 17.7467 195.95 17H195.18V15.446H196.734ZM206.823 7.088V17H205.521V9.818H203.029V8.922C203.831 8.922 204.466 8.79133 204.933 8.53C205.409 8.26867 205.726 7.788 205.885 7.088H206.823ZM216.8 13.598V14.606H215.456V17H214.336V14.606L209.982 14.606V13.486L214.49 7.074H215.456V13.598H216.8ZM214.336 13.598V8.824L211.032 13.598H214.336ZM226.558 7.032L230.45 17H228.98L227.874 13.948H223.688L222.554 17H221.154L225.074 7.032H226.558ZM227.482 12.898L225.788 8.292L224.066 12.898H227.482Z" fill="#B3AEAE"/>
<path d="M3.99999 6C1.79385 6 1.4173e-07 7.79386 0 9.99999C-9.44866e-08 11.6041 0.971452 13.3142 1.92203 14.645C2.8726 15.9758 3.82376 16.9269 3.82376 16.9269C3.87064 16.9737 3.93419 17 4.00046 17C4.06672 17 4.13028 16.9737 4.17716 16.9269C4.17716 16.9269 5.12831 15.9758 6.07888 14.645C7.02946 13.3142 7.99999 11.6041 7.99999 9.99999C7.99999 7.79386 6.20614 6 3.99999 6ZM3.99999 6.50011C5.93592 6.50011 7.49988 8.06407 7.49988 9.99999C7.49988 11.3958 6.59636 13.0602 5.67197 14.3543C4.83587 15.5248 4.15202 16.2061 3.99999 16.3612C3.84769 16.2058 3.16485 15.5246 2.32895 14.3543C1.40455 13.0602 0.500115 11.3958 0.500115 9.99999C0.500115 8.06407 2.06407 6.50011 3.99999 6.50011Z" fill="#A68E52"/>
<path d="M4 8.25C3.03648 8.25 2.25052 9.03688 2.25052 10.0004C2.25052 10.9639 3.03648 11.7508 4 11.7508C4.96352 11.7508 5.7504 10.9639 5.7504 10.0004C5.7504 9.03688 4.96352 8.25 4 8.25ZM4 8.75011C4.6933 8.75011 5.25028 9.3071 5.25028 10.0004C5.25028 10.6937 4.6933 11.2507 4 11.2507C3.30669 11.2507 2.75063 10.6937 2.75063 10.0004C2.75063 9.3071 3.30669 8.75011 4 8.75011Z" fill="#A68E52"/>
</svg>
