<svg width="42" height="42" viewBox="0 0 42 42" fill="none" xmlns="http://www.w3.org/2000/svg">
<g opacity="0.3">
<mask id="path-1-inside-1" fill="white">
<path d="M42 21C42 32.598 32.598 42 21 42C9.40202 42 0 32.598 0 21C0 9.40202 9.40202 0 21 0C32.598 0 42 9.40202 42 21Z"/>
</mask>
<path d="M42 21C42 32.598 32.598 42 21 42C9.40202 42 0 32.598 0 21C0 9.40202 9.40202 0 21 0C32.598 0 42 9.40202 42 21Z" fill="#212224" stroke="#A68E52" mask="url(#path-1-inside-1)"/>
</g>
<circle cx="21" cy="21" r="13.75" fill="#FDFBFB" stroke="#A68E52" stroke-width="0.5"/>
<path fill-rule="evenodd" clip-rule="evenodd" d="M20.8432 21.4818L25.1807 25.8193L25.6626 25.3374L21.3251 20.9999L25.6625 16.6625L25.1806 16.1805L20.8432 20.5179L16.5058 16.1806L16.0238 16.6625L20.3612 20.9999L16.0237 25.3374L16.5057 25.8193L20.8432 21.4818Z" fill="#212224"/>
</svg>
