<svg width="66" height="27" viewBox="0 0 66 27" fill="none" xmlns="http://www.w3.org/2000/svg">
<path d="M1.20799 20.5321H2.01898C2.55964 20.5321 3.10029 20.3109 3.64095 19.8686C4.18161 19.4098 4.6895 18.6808 5.16462 17.6814C5.60698 16.7475 5.95103 15.6252 6.19679 14.3145C6.44254 13.0039 6.63914 11.0378 6.78659 8.41646L7.10607 3.13276L4.50109 2.05144V1.48621H18.8777V2.02687L16.5922 2.37092V20.5321H18.7056L19.0743 26.5531H18.337L15.7812 21.1465H4.13246L1.57662 26.5531H0.839361L1.20799 20.5321ZM13.8889 20.5321V2.10059H7.84333L7.45013 8.41646C7.26991 11.1197 7.05692 13.1431 6.81117 14.4866C6.56542 15.8136 6.22955 16.9605 5.80358 17.9271C5.54144 18.5169 5.26292 19.0084 4.96802 19.4016C4.6895 19.7785 4.43555 20.0652 4.20618 20.2618C3.97681 20.4584 3.86213 20.5485 3.86213 20.5321H13.8889ZM30.6567 21.638C28.8709 21.638 27.2735 21.2038 25.8645 20.3355C24.4556 19.4672 23.3579 18.2548 22.5715 16.6983C21.785 15.1255 21.3918 13.3315 21.3918 11.3163C21.3918 9.30117 21.785 7.51536 22.5715 5.95892C23.3579 4.3861 24.4556 3.16553 25.8645 2.2972C27.2735 1.42887 28.8709 0.994704 30.6567 0.994704C32.4425 0.994704 34.0399 1.42887 35.4489 2.2972C36.8579 3.16553 37.9556 4.3861 38.742 5.95892C39.5284 7.51536 39.9216 9.30117 39.9216 11.3163C39.9216 13.3315 39.5284 15.1255 38.742 16.6983C37.9556 18.2548 36.8579 19.4672 35.4489 20.3355C34.0399 21.2038 32.4425 21.638 30.6567 21.638ZM30.6567 21.0728C31.8364 21.0728 32.8931 20.7615 33.827 20.1389C34.7772 19.5163 35.5227 18.6152 36.0633 17.4356C36.604 16.2396 36.8743 14.8306 36.8743 13.2086V9.42405C36.8743 7.80207 36.604 6.40128 36.0633 5.22166C35.5227 4.02566 34.7772 3.11638 33.827 2.4938C32.8931 1.87122 31.8364 1.55994 30.6567 1.55994C29.4607 1.55994 28.3958 1.87122 27.4619 2.4938C26.5281 3.11638 25.7908 4.02566 25.2502 5.22166C24.7095 6.40128 24.4392 7.80207 24.4392 9.42405V13.2086C24.4392 14.8306 24.7095 16.2396 25.2502 17.4356C25.7908 18.6152 26.5281 19.5163 27.4619 20.1389C28.3958 20.7615 29.4607 21.0728 30.6567 21.0728ZM52.4626 21.3922L45.1391 2.37092V19.6474L47.4983 20.6304V21.1465H42.2392V20.6304L44.5493 19.6474V2.37092L42.2884 2.02687V1.48621H47.7195L53.8879 17.2636L60.1792 1.48621H65.1434V2.02687L62.8825 2.37092V20.2618L65.1434 20.6304V21.1465H57.9183V20.6304L60.1792 20.2618V3.10818L52.9049 21.3922H52.4626Z" fill="#DDDDDD"/>
</svg>
