<svg width="69" height="26" viewBox="0 0 69 26" fill="none" xmlns="http://www.w3.org/2000/svg">
<circle cx="7.5" cy="12.5" r="7.1" stroke="#A68E52" stroke-width="0.8"/>
<path opacity="0.7" d="M31.04 8.88V16H30.1V9.7H27.47L27.33 13.71C27.3033 14.4567 27.15 15.05 26.87 15.49C26.5967 15.93 26.2 16.15 25.68 16.15C25.4667 16.15 25.24 16.1033 25 16.01V15.21C25.1067 15.2767 25.2767 15.31 25.51 15.31C25.7033 15.31 25.8567 15.2667 25.97 15.18C26.09 15.0867 26.1933 14.88 26.28 14.56C26.3733 14.24 26.4267 13.7933 26.44 13.22L26.57 8.88H31.04ZM38.0657 8.88V9.7H34.0757V11.93H37.8057V12.72H34.0757V15.18H38.1157V16H33.1357V8.88H38.0657ZM45.779 13.31C45.699 14.21 45.3857 14.9133 44.839 15.42C44.299 15.92 43.5857 16.17 42.699 16.17C41.6857 16.17 40.8823 15.8367 40.289 15.17C39.6957 14.4967 39.399 13.59 39.399 12.45C39.399 11.3833 39.6957 10.4967 40.289 9.79C40.889 9.07667 41.7157 8.72 42.769 8.72C43.5223 8.72 44.1857 8.92333 44.759 9.33C45.3323 9.73667 45.6523 10.3 45.719 11.02H44.779C44.6723 10.5533 44.439 10.19 44.079 9.93C43.719 9.66333 43.2757 9.53 42.749 9.53C41.9557 9.53 41.3557 9.81 40.949 10.37C40.549 10.93 40.349 11.62 40.349 12.44C40.349 13.3467 40.5623 14.06 40.989 14.58C41.4157 15.1 41.999 15.36 42.739 15.36C43.3457 15.36 43.829 15.1867 44.189 14.84C44.549 14.4867 44.7657 13.9767 44.839 13.31H45.779ZM53.1058 8.88V16H52.1658V12.67H48.4058V16H47.4658V8.88H48.4058V11.85H52.1658V8.88H53.1058ZM58.1726 8.88L60.9526 16H59.9026L59.1126 13.82H56.1226L55.3126 16H54.3126L57.1126 8.88H58.1726ZM58.8326 13.07L57.6226 9.78L56.3926 13.07H58.8326ZM64.847 12.96L62.497 16H61.337L63.717 12.93C63.1503 12.8567 62.7136 12.65 62.407 12.31C62.1003 11.97 61.947 11.5067 61.947 10.92C61.947 10.26 62.1436 9.75667 62.537 9.41C62.937 9.05667 63.4903 8.88 64.197 8.88H67.257V16H66.317V12.96H64.847ZM66.317 12.16V9.68H64.517C63.437 9.68 62.897 10.0933 62.897 10.92C62.897 11.7467 63.437 12.16 64.517 12.16H66.317Z" fill="#DDDDDD"/>
<path d="M11.15 8.88V16H9.96V10.51L7.98 16H6.96L4.93 10.51V16H3.75V8.88H5.5L7.49 14.45L9.41 8.88H11.15Z" fill="#A68E52"/>
</svg>
