<svg width="227" height="26" viewBox="0 0 227 26" fill="none" xmlns="http://www.w3.org/2000/svg">
<path d="M33.306 6.794C34.818 6.794 35.994 7.27 36.834 8.222C37.674 9.16467 38.094 10.4013 38.094 11.932C38.094 13.472 37.6787 14.7413 36.848 15.74C36.0173 16.7387 34.8413 17.238 33.32 17.238C32.5453 17.238 31.85 17.098 31.234 16.818C30.618 16.538 30.114 16.1507 29.722 15.656C29.3393 15.1613 29.0453 14.5967 28.84 13.962C28.644 13.3273 28.546 12.6413 28.546 11.904C28.546 10.3453 28.9753 9.104 29.834 8.18C30.702 7.256 31.8593 6.794 33.306 6.794ZM33.306 7.942C32.1953 7.942 31.3413 8.334 30.744 9.118C30.156 9.89267 29.862 10.854 29.862 12.002C29.862 13.2527 30.1747 14.2513 30.8 14.998C31.4347 15.7353 32.2793 16.104 33.334 16.104C34.3793 16.104 35.2147 15.7307 35.84 14.984C36.4653 14.2373 36.778 13.2433 36.778 12.002C36.778 10.77 36.4607 9.78533 35.826 9.048C35.2007 8.31067 34.3607 7.942 33.306 7.942ZM45.0627 10.826L42.4727 10.826V17H41.2827V10.826H38.6927V9.776L45.0627 9.776V10.826ZM53.0132 19.296H51.8792V17H46.3632V19.296H45.2292V15.95H46.0132C46.2372 15.5207 46.4425 14.858 46.6292 13.962C46.8252 13.0567 46.9232 12.1747 46.9232 11.316V9.776H52.0752V15.95H53.0132V19.296ZM50.8852 15.95V10.826H48.0852V11.428C48.0852 12.2773 47.9965 13.1407 47.8192 14.018C47.6512 14.886 47.4599 15.53 47.2452 15.95H50.8852ZM60.2262 14.718C59.8623 16.398 58.8123 17.238 57.0763 17.238C56.0123 17.238 55.1769 16.9067 54.5703 16.244C53.9729 15.5813 53.6743 14.662 53.6743 13.486C53.6743 12.3193 53.9823 11.3767 54.5983 10.658C55.2236 9.93 56.0356 9.566 57.0343 9.566C58.1449 9.566 58.9663 9.944 59.4983 10.7C60.0396 11.4467 60.3103 12.394 60.3103 13.542V13.71L54.8783 13.71L54.8643 13.794C54.8643 14.5593 55.0649 15.1613 55.4663 15.6C55.8676 16.0387 56.4183 16.258 57.1183 16.258C57.6409 16.258 58.0516 16.1367 58.3503 15.894C58.6583 15.6513 58.8963 15.2593 59.0643 14.718H60.2262ZM59.0783 12.744C59.0223 12.0533 58.8123 11.5167 58.4483 11.134C58.0843 10.742 57.6036 10.546 57.0063 10.546C56.4276 10.546 55.9469 10.742 55.5643 11.134C55.1816 11.526 54.9529 12.0627 54.8783 12.744L59.0783 12.744ZM67.3457 9.776V17H66.1557V10.826H63.5797L63.4817 14.018C63.4537 15.1193 63.253 15.9173 62.8797 16.412C62.5064 16.9067 62.0397 17.154 61.4797 17.154C61.1344 17.154 60.8497 17.1027 60.6257 17V16.034C60.747 16.0993 60.957 16.132 61.2557 16.132C61.5357 16.132 61.7737 15.9827 61.9697 15.684C62.175 15.376 62.287 14.8627 62.3057 14.144L62.4317 9.776L67.3457 9.776ZM74.1915 17H73.0015V9.776L78.9935 9.776V17H77.8035V10.826L74.1915 10.826V17ZM81.9008 9.776V10.798C82.4234 9.96733 83.2354 9.552 84.3368 9.552C85.3448 9.552 86.1428 9.89267 86.7308 10.574C87.3281 11.2553 87.6268 12.1793 87.6268 13.346C87.6268 14.5127 87.3328 15.446 86.7448 16.146C86.1661 16.8367 85.3821 17.182 84.3928 17.182C83.3568 17.182 82.5494 16.7853 81.9708 15.992V19.786H80.7808V9.776H81.9008ZM84.1548 10.546C83.4641 10.546 82.9181 10.798 82.5168 11.302C82.1248 11.7967 81.9288 12.4827 81.9288 13.36C81.9288 14.2373 82.1294 14.928 82.5308 15.432C82.9414 15.9267 83.4968 16.174 84.1968 16.174C84.8781 16.174 85.4148 15.922 85.8068 15.418C86.1988 14.914 86.3948 14.228 86.3948 13.36C86.3948 12.4827 86.1941 11.7967 85.7928 11.302C85.4008 10.798 84.8548 10.546 84.1548 10.546ZM89.6536 10.602C90.2883 9.91133 91.1516 9.566 92.2436 9.566C93.3356 9.566 94.1849 9.89733 94.7916 10.56C95.3983 11.2227 95.7016 12.1513 95.7016 13.346C95.7016 14.5687 95.3983 15.5207 94.7916 16.202C94.1849 16.8833 93.3309 17.224 92.2296 17.224C91.1283 17.224 90.2649 16.888 89.6396 16.216C89.0143 15.544 88.7016 14.6107 88.7016 13.416C88.7016 12.2307 89.0189 11.2927 89.6536 10.602ZM93.8676 11.33C93.4663 10.8167 92.9156 10.56 92.2156 10.56C91.5156 10.56 90.9603 10.8167 90.5496 11.33C90.1389 11.8433 89.9336 12.5293 89.9336 13.388C89.9336 14.2747 90.1343 14.97 90.5356 15.474C90.9463 15.9687 91.5156 16.216 92.2436 16.216C92.9436 16.216 93.4896 15.964 93.8816 15.46C94.2829 14.956 94.4836 14.2607 94.4836 13.374C94.4836 12.5153 94.2783 11.834 93.8676 11.33ZM103.873 19.296H102.739V17H97.2226V19.296H96.0886V15.95H96.8726C97.0966 15.5207 97.3019 14.858 97.4886 13.962C97.6846 13.0567 97.7826 12.1747 97.7826 11.316V9.776L102.935 9.776V15.95H103.873V19.296ZM101.745 15.95V10.826L98.9446 10.826V11.428C98.9446 12.2773 98.8559 13.1407 98.6786 14.018C98.5106 14.886 98.3192 15.53 98.1046 15.95L101.745 15.95ZM111.31 16.048V16.972C111.067 17.0653 110.796 17.112 110.498 17.112C109.816 17.112 109.466 16.7573 109.448 16.048C108.766 16.8133 107.894 17.196 106.83 17.196C106.12 17.196 105.556 17.014 105.136 16.65C104.725 16.286 104.52 15.7867 104.52 15.152C104.52 13.864 105.374 13.1127 107.082 12.898C108.09 12.7767 108.673 12.688 108.832 12.632C109.168 12.52 109.35 12.2867 109.378 11.932C109.387 11.876 109.392 11.8153 109.392 11.75C109.392 10.9567 108.846 10.56 107.754 10.56C107.194 10.56 106.769 10.6767 106.48 10.91C106.19 11.134 106.018 11.5073 105.962 12.03H104.8C104.818 11.2553 105.094 10.6533 105.626 10.224C106.158 9.79467 106.89 9.58 107.824 9.58C108.841 9.58 109.597 9.81333 110.092 10.28C110.25 10.4293 110.367 10.6253 110.442 10.868C110.516 11.1107 110.558 11.3113 110.568 11.47C110.577 11.6193 110.582 11.848 110.582 12.156C110.582 12.52 110.572 13.0613 110.554 13.78C110.535 14.4893 110.526 15.0213 110.526 15.376C110.526 15.6373 110.558 15.824 110.624 15.936C110.698 16.0387 110.829 16.09 111.016 16.09C111.09 16.09 111.188 16.076 111.31 16.048ZM109.392 13.248C109.308 13.3133 109.219 13.3693 109.126 13.416C109.032 13.4627 108.911 13.5 108.762 13.528C108.622 13.556 108.524 13.5793 108.468 13.598C108.421 13.6073 108.3 13.626 108.104 13.654C107.908 13.6727 107.805 13.682 107.796 13.682C107.506 13.7193 107.315 13.7473 107.222 13.766C107.138 13.7753 106.97 13.8127 106.718 13.878C106.475 13.9433 106.302 14.018 106.2 14.102C106.097 14.186 105.994 14.312 105.892 14.48C105.798 14.6387 105.752 14.83 105.752 15.054C105.752 15.4273 105.878 15.7213 106.13 15.936C106.391 16.1507 106.746 16.258 107.194 16.258C107.763 16.258 108.272 16.09 108.72 15.754C109.168 15.418 109.392 15.0213 109.392 14.564V13.248ZM115.483 13.5L113.005 17H111.535L114.699 12.744L111.941 9.776H113.411L116.351 13.094H116.379V9.776H117.569V13.094H117.597L120.537 9.776L122.007 9.776L119.249 12.744L122.413 17H120.943L118.465 13.5L117.569 14.41V17H116.379V14.41L115.483 13.5ZM125.148 15.446V17H123.594V15.446H125.148ZM125.148 9.776V11.33H123.594V9.776H125.148ZM133.991 6.85C132.749 8.76333 132.129 10.9147 132.129 13.304C132.129 15.5813 132.749 17.7 133.991 19.66H133.081C132.325 18.484 131.769 17.4247 131.415 16.482C131.069 15.53 130.897 14.4753 130.897 13.318C130.897 10.9567 131.625 8.80067 133.081 6.85H133.991ZM137.726 7.074C138.323 7.074 138.832 7.186 139.252 7.41C139.681 7.62467 140.008 7.89067 140.232 8.208C140.456 8.52533 140.633 8.94067 140.764 9.454C140.894 9.958 140.974 10.4153 141.002 10.826C141.03 11.2273 141.044 11.7127 141.044 12.282C141.044 12.8047 141.02 13.276 140.974 13.696C140.936 14.116 140.848 14.5547 140.708 15.012C140.577 15.4693 140.395 15.852 140.162 16.16C139.928 16.4587 139.611 16.706 139.21 16.902C138.808 17.098 138.332 17.196 137.782 17.196C137.203 17.196 136.699 17.098 136.27 16.902C135.85 16.6967 135.523 16.4447 135.29 16.146C135.056 15.8473 134.87 15.4693 134.73 15.012C134.599 14.5453 134.515 14.1067 134.478 13.696C134.44 13.276 134.422 12.7953 134.422 12.254C134.422 11.7873 134.431 11.3813 134.45 11.036C134.478 10.6907 134.524 10.3033 134.59 9.874C134.664 9.43533 134.776 9.06667 134.926 8.768C135.075 8.46 135.266 8.17067 135.5 7.9C135.733 7.62933 136.036 7.424 136.41 7.284C136.792 7.144 137.231 7.074 137.726 7.074ZM138.496 8.306C138.272 8.194 138.015 8.138 137.726 8.138C137.436 8.138 137.18 8.194 136.956 8.306C136.732 8.40867 136.55 8.53 136.41 8.67C136.27 8.81 136.148 9.02 136.046 9.3C135.943 9.57067 135.868 9.79933 135.822 9.986C135.784 10.1727 135.752 10.4433 135.724 10.798C135.696 11.1433 135.682 11.3907 135.682 11.54C135.682 11.68 135.682 11.918 135.682 12.254C135.682 12.5807 135.686 12.8513 135.696 13.066C135.705 13.2807 135.728 13.5607 135.766 13.906C135.803 14.2513 135.868 14.5407 135.962 14.774C136.055 14.998 136.172 15.2267 136.312 15.46C136.452 15.684 136.643 15.8567 136.886 15.978C137.138 16.09 137.427 16.146 137.754 16.146C138.034 16.146 138.281 16.0947 138.496 15.992C138.72 15.8893 138.902 15.768 139.042 15.628C139.182 15.488 139.298 15.292 139.392 15.04C139.494 14.7787 139.569 14.5547 139.616 14.368C139.662 14.172 139.695 13.9153 139.714 13.598C139.742 13.2713 139.756 13.0333 139.756 12.884C139.765 12.7253 139.77 12.4967 139.77 12.198C139.77 11.8713 139.77 11.638 139.77 11.498C139.77 11.358 139.756 11.1153 139.728 10.77C139.7 10.4247 139.662 10.1587 139.616 9.972C139.578 9.78533 139.508 9.55667 139.406 9.286C139.303 9.01533 139.182 8.81 139.042 8.67C138.902 8.53 138.72 8.40867 138.496 8.306ZM148.837 13.598V14.606H147.493V17H146.373V14.606L142.019 14.606V13.486L146.527 7.074L147.493 7.074V13.598H148.837ZM146.373 13.598V8.824L143.069 13.598L146.373 13.598ZM156.616 13.598V14.606H155.272V17H154.152V14.606H149.798V13.486L154.306 7.074H155.272V13.598H156.616ZM154.152 13.598V8.824L150.848 13.598H154.152ZM160.112 13.318C160.112 14.4753 159.934 15.53 159.58 16.482C159.234 17.4247 158.684 18.484 157.928 19.66H157.018C158.259 17.7 158.88 15.5813 158.88 13.304C158.88 10.9147 158.259 8.76333 157.018 6.85L157.928 6.85C159.384 8.80067 160.112 10.9567 160.112 13.318ZM171.299 7.256V8.306H167.281L166.693 11.26C167.178 10.7373 167.846 10.476 168.695 10.476C169.628 10.476 170.384 10.7793 170.963 11.386C171.542 11.9833 171.831 12.7627 171.831 13.724C171.831 14.732 171.514 15.5627 170.879 16.216C170.244 16.8693 169.418 17.196 168.401 17.196C167.458 17.196 166.693 16.9347 166.105 16.412C165.526 15.8893 165.223 15.194 165.195 14.326L166.399 14.326C166.446 14.8767 166.656 15.3247 167.029 15.67C167.402 16.0153 167.864 16.188 168.415 16.188C169.031 16.188 169.544 15.964 169.955 15.516C170.366 15.068 170.571 14.5127 170.571 13.85C170.571 13.1593 170.37 12.5993 169.969 12.17C169.568 11.7313 169.045 11.512 168.401 11.512C167.58 11.512 166.945 11.834 166.497 12.478L165.475 12.408L166.399 7.256L171.299 7.256ZM179.078 7.256V8.306L175.06 8.306L174.472 11.26C174.958 10.7373 175.625 10.476 176.474 10.476C177.408 10.476 178.164 10.7793 178.742 11.386C179.321 11.9833 179.61 12.7627 179.61 13.724C179.61 14.732 179.293 15.5627 178.658 16.216C178.024 16.8693 177.198 17.196 176.18 17.196C175.238 17.196 174.472 16.9347 173.884 16.412C173.306 15.8893 173.002 15.194 172.974 14.326H174.178C174.225 14.8767 174.435 15.3247 174.808 15.67C175.182 16.0153 175.644 16.188 176.194 16.188C176.81 16.188 177.324 15.964 177.734 15.516C178.145 15.068 178.35 14.5127 178.35 13.85C178.35 13.1593 178.15 12.5993 177.748 12.17C177.347 11.7313 176.824 11.512 176.18 11.512C175.359 11.512 174.724 11.834 174.276 12.478L173.254 12.408L174.178 7.256L179.078 7.256ZM186.858 7.256V8.306H182.84L182.252 11.26C182.737 10.7373 183.404 10.476 184.254 10.476C185.187 10.476 185.943 10.7793 186.522 11.386C187.1 11.9833 187.39 12.7627 187.39 13.724C187.39 14.732 187.072 15.5627 186.438 16.216C185.803 16.8693 184.977 17.196 183.96 17.196C183.017 17.196 182.252 16.9347 181.664 16.412C181.085 15.8893 180.782 15.194 180.754 14.326H181.958C182.004 14.8767 182.214 15.3247 182.588 15.67C182.961 16.0153 183.423 16.188 183.974 16.188C184.59 16.188 185.103 15.964 185.514 15.516C185.924 15.068 186.13 14.5127 186.13 13.85C186.13 13.1593 185.929 12.5993 185.528 12.17C185.126 11.7313 184.604 11.512 183.96 11.512C183.138 11.512 182.504 11.834 182.056 12.478L181.034 12.408L181.958 7.256L186.858 7.256ZM198.533 7.256V8.306H194.515L193.927 11.26C194.413 10.7373 195.08 10.476 195.929 10.476C196.863 10.476 197.619 10.7793 198.197 11.386C198.776 11.9833 199.065 12.7627 199.065 13.724C199.065 14.732 198.748 15.5627 198.113 16.216C197.479 16.8693 196.653 17.196 195.635 17.196C194.693 17.196 193.927 16.9347 193.339 16.412C192.761 15.8893 192.457 15.194 192.429 14.326H193.633C193.68 14.8767 193.89 15.3247 194.263 15.67C194.637 16.0153 195.099 16.188 195.649 16.188C196.265 16.188 196.779 15.964 197.189 15.516C197.6 15.068 197.805 14.5127 197.805 13.85C197.805 13.1593 197.605 12.5993 197.203 12.17C196.802 11.7313 196.279 11.512 195.635 11.512C194.814 11.512 194.179 11.834 193.731 12.478L192.709 12.408L193.633 7.256L198.533 7.256ZM206.719 9.65H205.501C205.435 9.174 205.258 8.80067 204.969 8.53C204.689 8.25 204.306 8.11 203.821 8.11C203.485 8.11 203.181 8.17067 202.911 8.292C202.649 8.41333 202.435 8.59067 202.267 8.824C202.108 9.048 201.973 9.27667 201.861 9.51C201.749 9.74333 201.665 10.028 201.609 10.364C201.553 10.7 201.515 10.9753 201.497 11.19C201.478 11.3953 201.459 11.6473 201.441 11.946C201.982 11.078 202.803 10.644 203.905 10.644C204.829 10.644 205.571 10.938 206.131 11.526C206.7 12.1047 206.985 12.87 206.985 13.822C206.985 14.802 206.686 15.6093 206.089 16.244C205.501 16.8787 204.712 17.196 203.723 17.196C201.417 17.196 200.265 15.5533 200.265 12.268C200.265 11.7547 200.293 11.2693 200.349 10.812C200.414 10.3547 200.526 9.89267 200.685 9.426C200.853 8.95 201.067 8.544 201.329 8.208C201.59 7.872 201.935 7.60133 202.365 7.396C202.803 7.18133 203.303 7.074 203.863 7.074C204.693 7.074 205.361 7.30267 205.865 7.76C206.369 8.208 206.653 8.838 206.719 9.65ZM203.695 11.68C203.088 11.68 202.598 11.8853 202.225 12.296C201.851 12.6973 201.665 13.2247 201.665 13.878C201.665 14.5593 201.851 15.1053 202.225 15.516C202.607 15.9267 203.107 16.132 203.723 16.132C204.32 16.132 204.801 15.936 205.165 15.544C205.538 15.1427 205.725 14.606 205.725 13.934C205.725 13.2433 205.543 12.6973 205.179 12.296C204.815 11.8853 204.32 11.68 203.695 11.68ZM218.213 15.922V17L211.745 17C211.773 16.4493 211.857 15.9687 211.997 15.558C212.137 15.1473 212.351 14.7787 212.641 14.452C212.939 14.116 213.229 13.8407 213.509 13.626C213.789 13.4113 214.185 13.1453 214.699 12.828C215.501 12.324 216.029 11.946 216.281 11.694C216.803 11.1807 217.065 10.6113 217.065 9.986C217.065 9.43533 216.887 8.98733 216.533 8.642C216.178 8.28733 215.716 8.11 215.147 8.11C214.465 8.11 213.975 8.348 213.677 8.824C213.387 9.29067 213.233 9.88333 213.215 10.602H212.011V10.336C212.011 9.356 212.3 8.56733 212.879 7.97C213.467 7.37267 214.241 7.074 215.203 7.074C216.145 7.074 216.897 7.33533 217.457 7.858C218.017 8.38067 218.297 9.08067 218.297 9.958C218.297 10.3313 218.231 10.686 218.101 11.022C217.979 11.3487 217.839 11.624 217.681 11.848C217.531 12.072 217.298 12.31 216.981 12.562C216.673 12.814 216.416 13.01 216.211 13.15C216.005 13.2807 215.711 13.4627 215.329 13.696C214.563 14.1533 214.055 14.508 213.803 14.76C213.448 15.1053 213.219 15.4927 213.117 15.922H218.213ZM225.768 7.256V8.306H221.75L221.162 11.26C221.647 10.7373 222.314 10.476 223.164 10.476C224.097 10.476 224.853 10.7793 225.432 11.386C226.01 11.9833 226.3 12.7627 226.3 13.724C226.3 14.732 225.982 15.5627 225.348 16.216C224.713 16.8693 223.887 17.196 222.87 17.196C221.927 17.196 221.162 16.9347 220.574 16.412C219.995 15.8893 219.692 15.194 219.664 14.326H220.868C220.914 14.8767 221.124 15.3247 221.498 15.67C221.871 16.0153 222.333 16.188 222.884 16.188C223.5 16.188 224.013 15.964 224.424 15.516C224.834 15.068 225.04 14.5127 225.04 13.85C225.04 13.1593 224.839 12.5993 224.438 12.17C224.036 11.7313 223.514 11.512 222.87 11.512C222.048 11.512 221.414 11.834 220.966 12.478L219.944 12.408L220.868 7.256L225.768 7.256Z" fill="#B3AEAE"/>
<path d="M9.27374 16.9999C9.27371 16.9999 9.27371 16.9999 9.27368 16.9999C8.88953 16.9999 8.08521 16.9361 7.01449 16.5083C5.70558 15.9855 4.41304 15.0915 3.1728 13.8512C0.701063 11.3795 -0.206918 9.54136 0.0387565 7.50652C0.154373 6.48561 0.592239 5.97508 1.19812 5.36549C1.43403 5.1296 1.74458 5 2.07322 5C2.38857 5 2.68296 5.12075 2.90223 5.34L4.67227 7.11004C5.13474 7.57416 5.12398 8.33819 4.64864 8.81353L4.1422 9.31929C4.00469 9.45662 3.97749 9.66991 4.07615 9.83801C4.47392 10.5159 4.83498 11.0507 5.4051 11.6218C5.90764 12.1243 6.42411 12.5106 7.18756 12.9546C7.25263 12.9925 7.32675 13.0125 7.40187 13.0125C7.51594 13.0125 7.62317 12.9681 7.70374 12.8877L8.21315 12.379C8.44801 12.1441 8.75847 12.0147 9.08723 12.0147C9.40226 12.0147 9.69665 12.1352 9.91615 12.3539L11.6865 14.1243C12.1485 14.5879 12.1379 15.3523 11.6632 15.8287C11.6624 15.8295 11.6615 15.8304 11.6607 15.8312C11.0259 16.4523 10.5339 16.8685 9.51953 16.989C9.51847 16.9892 9.51739 16.9893 9.51633 16.9894C9.48691 16.9926 9.40448 16.9999 9.27374 16.9999ZM2.07322 5.57081C1.89704 5.57081 1.72983 5.64101 1.60237 5.7685C0.971939 6.40273 0.693928 6.79384 0.605681 7.57285C0.383409 9.41393 1.24413 11.1154 3.57641 13.4476C6.34285 16.2141 8.63661 16.4291 9.27371 16.4291C9.27371 16.4291 9.27374 16.4291 9.27377 16.4291C9.37886 16.4291 9.43982 16.4235 9.45397 16.422C10.2608 16.3257 10.6414 16.0297 11.26 15.4246C11.5122 15.1704 11.5224 14.7683 11.2825 14.5275L9.51282 12.7579C9.40143 12.6468 9.25014 12.5855 9.08717 12.5855C8.91091 12.5855 8.74378 12.6555 8.6166 12.7827L8.10704 13.2916C7.91868 13.4797 7.66824 13.5833 7.40184 13.5833C7.226 13.5833 7.05265 13.5365 6.9005 13.448C6.33729 13.1204 5.67118 12.6951 5.00126 12.0252C4.3881 11.411 4.00432 10.8435 3.58378 10.1269C3.3536 9.73455 3.41733 9.23635 3.73884 8.91536L4.24514 8.40977C4.49815 8.15673 4.5086 7.75451 4.26829 7.51332L2.49859 5.74365C2.38717 5.6322 2.2361 5.57081 2.07322 5.57081Z" fill="#A68E52"/>
</svg>
